#N canvas 312 219 791 503 10;
#X obj 48 110 osc~;
#X obj 51 36 hsl 128 15 100 120 1 0 empty empty A_Frequency -2 -8 0
10 -262144 -1 -1 600 1;
#X obj 271 341 dac~;
#X obj 200 36 hsl 128 15 0 1 0 0 empty empty A_Amplitude -2 -8 0 10
-262144 -1 -1 12700 1;
#X obj 48 159 *~;
#X obj 544 36 hsl 128 15 0 1 0 0 empty empty B_Amplitude -2 -8 0 10
-262144 -1 -1 12700 1;
#X obj 387 167 *~;
#X obj 386 121 osc~;
#X obj 386 39 hsl 128 15 100 200 1 0 empty empty B_Frequency -2 -8
0 10 -262144 -1 -1 0 1;
#X obj 292 77 bng 15 250 50 0 empty empty empty 17 7 0 10 -262144 -1
-1;
#X msg 251 117 0.25;
#X msg 318 116 0;
#X connect 0 0 4 0;
#X connect 1 0 0 0;
#X connect 3 0 4 1;
#X connect 4 0 2 0;
#X connect 5 0 6 1;
#X connect 6 0 2 1;
#X connect 7 0 6 0;
#X connect 8 0 7 0;
#X connect 9 0 11 0;
#X connect 9 0 10 0;
#X connect 10 0 0 1;
#X connect 11 0 7 1;
