#N canvas 85 121 791 503 10;
#X obj 48 110 osc~;
#X obj 51 36 hsl 128 15 100 2000 1 0 empty empty A_Frequency -2 -8
0 10 -262144 -1 -1 5900 1;
#X obj 271 341 dac~;
#X obj 200 36 hsl 128 15 0 1 0 0 empty empty A_Amplitude -2 -8 0 10
-262144 -1 -1 6000 1;
#X obj 48 159 *~;
#X obj 398 36 hsl 128 15 100 2000 1 0 empty empty B_Frequency -2 -8
0 10 -262144 -1 -1 6000 1;
#X obj 544 36 hsl 128 15 0 1 0 0 empty empty B_Amplitude -2 -8 0 10
-262144 -1 -1 3500 1;
#X obj 387 167 *~;
#X obj 386 121 osc~;
#X connect 0 0 4 0;
#X connect 1 0 0 0;
#X connect 3 0 4 1;
#X connect 4 0 2 0;
#X connect 5 0 8 0;
#X connect 6 0 7 1;
#X connect 7 0 2 1;
#X connect 8 0 7 0;
