#N canvas -54 235 791 503 10;
#X obj 48 110 osc~;
#X obj 51 36 hsl 128 15 100 2000 1 0 empty empty A_Frequency -2 -8
0 10 -262144 -1 -1 12700 1;
#X obj 271 341 dac~;
#X obj 200 36 hsl 128 15 0 1 0 0 empty empty A_Amplitude -2 -8 0 10
-262144 -1 -1 12700 1;
#X obj 48 159 *~;
#X obj 390 36 hsl 128 15 100 2000 1 0 empty empty B_Frequency -2 -8
0 10 -262144 -1 -1 11800 1;
#X obj 554 36 hsl 128 15 0 1 0 0 empty empty B_Amplitude -2 -8 0 10
-262144 -1 -1 5100 1;
#X obj 448 270 *~;
#X obj 386 121 osc~;
#X obj 273 113 phasor~;
#X obj 275 138 expr~ $v1 > 0.5;
#X obj 553 163 *~;
#X obj 552 202 osc~;
#X obj 568 129 0.5;
#X obj 597 162 *~;
#X obj 596 201 osc~;
#X obj 636 163 *~;
#X obj 635 202 osc~;
#X obj 677 161 *~;
#X obj 676 200 osc~;
#X obj 612 128 0.333;
#X obj 651 129 0.25;
#X obj 692 127 0.165;
#X obj 622 72 bng 15 250 50 0 empty empty empty 17 7 0 10 -262144 -1
-1;
#X obj 521 357 sum~;
#X connect 0 0 4 0;
#X connect 1 0 0 0;
#X connect 3 0 4 1;
#X connect 4 0 2 0;
#X connect 5 0 8 0;
#X connect 5 0 9 0;
#X connect 5 0 11 0;
#X connect 5 0 14 0;
#X connect 5 0 16 0;
#X connect 5 0 18 0;
#X connect 6 0 7 1;
#X connect 7 0 2 1;
#X connect 9 0 10 0;
#X connect 11 0 12 0;
#X connect 12 0 7 0;
#X connect 13 0 11 1;
#X connect 14 0 15 0;
#X connect 15 0 7 0;
#X connect 16 0 17 0;
#X connect 17 0 7 0;
#X connect 18 0 19 0;
#X connect 19 0 7 0;
#X connect 20 0 14 1;
#X connect 21 0 16 1;
#X connect 22 0 18 1;
#X connect 23 0 13 0;
#X connect 23 0 20 0;
#X connect 23 0 21 0;
#X connect 23 0 22 0;
