#N canvas 263 158 1161 651 10;
#X obj 51 36 hsl 128 15 100 2000 1 0 empty empty A_Frequency -2 -8
0 10 -262144 -1 -1 0 1;
#X obj 282 552 dac~;
#X obj 341 186 hsl 128 15 0 1 0 0 empty empty A_Amplitude -2 -8 0 10
-262144 -1 -1 12700 1;
#X obj 712 77 hsl 128 15 100 2000 1 0 empty empty B_Frequency -2 -8
0 10 -262144 -1 -1 1800 1;
#X obj 873 196 hsl 128 15 0 1 0 0 empty empty B_Amplitude -2 -8 0 10
-262144 -1 -1 12700 1;
#X obj 796 369 *~;
#X obj 778 172 osc~;
#X obj 665 164 phasor~;
#X obj 667 189 expr~ $v1 > 0.5;
#X obj 602 192 -~ 0.5;
#X obj 602 214 abs~;
#X obj 604 238 *~ 4;
#X obj 604 262 -~ 1;
#X obj 900 476;
#X obj 243 324 *~;
#X obj 225 127 osc~;
#X obj 112 119 phasor~;
#X obj 114 144 expr~ $v1 > 0.5;
#X obj 49 147 -~ 0.5;
#X obj 49 169 abs~;
#X obj 51 193 *~ 4;
#X obj 51 217 -~ 1;
#X obj 114 172 *~ 2;
#X obj 114 200 -~ 1;
#X obj 666 218 *~ 2;
#X obj 666 246 -~ 1;
#X obj 420 22 bng 15 250 50 0 empty empty empty 17 7 0 10 -262144 -1
-1;
#X msg 379 62 0.25;
#X msg 446 61 0;
#X connect 0 0 16 0;
#X connect 0 0 15 0;
#X connect 2 0 14 1;
#X connect 3 0 6 0;
#X connect 3 0 7 0;
#X connect 4 0 5 1;
#X connect 5 0 1 1;
#X connect 7 0 8 0;
#X connect 7 0 9 0;
#X connect 8 0 24 0;
#X connect 9 0 10 0;
#X connect 10 0 11 0;
#X connect 11 0 12 0;
#X connect 12 0 5 0;
#X connect 14 0 1 0;
#X connect 16 0 17 0;
#X connect 16 0 18 0;
#X connect 17 0 22 0;
#X connect 18 0 19 0;
#X connect 19 0 20 0;
#X connect 20 0 21 0;
#X connect 21 0 14 0;
#X connect 22 0 23 0;
#X connect 24 0 25 0;
#X connect 25 0 5 0;
#X connect 26 0 28 0;
#X connect 26 0 27 0;
#X connect 27 0 15 1;
#X connect 27 0 16 1;
#X connect 28 0 7 1;
#X connect 28 0 6 1;
